<svg viewBox="0 0 305.31 70.46" xmlns="http://www.w3.org/2000/svg"><path d="M85.61 12v8.93a6.29 6.29 0 0 1 2.71-3 8.2 8.2 0 0 1 4.27-1.14q5.09 0 7.32 3.1a13 13 0 0 1 2.24 7.79 13 13 0 0 1-2.24 7.84q-2.23 3-7.32 3t-7.41-2.72C83.69 34 83 31.26 83 27.65V11h1.72a.83.83 0 0 1 .89 1zm1.49 9.48a12.79 12.79 0 0 0-1.49 6.19 13 13 0 0 0 1.49 6.27c1 1.83 2.82 2.74 5.49 2.74s4.49-.91 5.48-2.74a13 13 0 0 0 1.49-6.27 12.79 12.79 0 0 0-1.49-6.19q-1.48-2.75-5.48-2.74c-2.67-.02-4.49.89-5.49 2.72zM110 34.16q1.48 2.51 5.33 2.5 4.23-.07 6.42-4.31c.16-.31.61-.49 1.34-.54h1.33a8.49 8.49 0 0 1-3.21 5.09 9.36 9.36 0 0 1-5.88 1.64c-3.45 0-5.9-1-7.37-3a13.14 13.14 0 0 1-2.19-7.84 13.15 13.15 0 0 1 2.19-7.79c1.47-2.07 3.92-3.1 7.37-3.1s6.12 1.15 7.56 3.45a14 14 0 0 1 2 8.07h-16.55a11.73 11.73 0 0 0 1.66 5.83zm12.22-7.92A10.33 10.33 0 0 0 120.4 21q-1.56-2.23-5.09-2.23T110.18 21a10.68 10.68 0 0 0-1.77 5.29zm7.98-4.39q.54-5.09 8.07-5.09a12.44 12.44 0 0 1 6.15 1.24 4.15 4.15 0 0 1 2.07 3.87v9.64q0 7.05-10 7.05-7.67 0-7.67-5.95c0-3.87 2.92-6.16 8.77-6.9a13.78 13.78 0 0 0 4.31-1.17c1.41-.73 2.12-1.62 2.12-2.67 0-2.08-1.88-3.13-5.65-3.13-3.34 0-5.19 1.05-5.56 3.13zm7 5.8q-5.64.95-5.64 4.86 0 4.16 4.93 4.15 7.36 0 7.37-4.93v-6.19c-1.18.83-3.4 1.54-6.69 2.11zm29.43-10.3a2.3 2.3 0 0 1 1.17-.27h1.2l-7.6 21.23h-2.9L151 17.08h2.58L160 35l5.95-16.46a1.88 1.88 0 0 1 .68-1.19zm7.83 16.81c1 1.67 2.77 2.5 5.33 2.5q4.23-.07 6.43-4.31c.15-.31.6-.49 1.33-.54h1.33a8.4 8.4 0 0 1-3.21 5.09 9.34 9.34 0 0 1-5.88 1.64q-5.17 0-7.36-3a13.08 13.08 0 0 1-2.2-7.84 13.08 13.08 0 0 1 2.2-7.79q2.19-3.11 7.36-3.1 5.42 0 7.56 3.45a14 14 0 0 1 2 8.07h-16.53a11.73 11.73 0 0 0 1.64 5.83zm12.23-7.92a10.51 10.51 0 0 0-1.8-5.29q-1.57-2.23-5.1-2.23T174.66 21a10.58 10.58 0 0 0-1.76 5.29zm17.39-9.16v2.35H202a5 5 0 0 0-3.88 1.64 5.29 5.29 0 0 0-1.53 3.68v13.56h-2.69V25.15a8.23 8.23 0 0 1 2.15-5.65 7.25 7.25 0 0 1 5.68-2.42zm5.56 2.74c1.47-2 3.92-3.06 7.37-3.06a9.5 9.5 0 0 1 6.11 1.88 8.68 8.68 0 0 1 3.06 5.09h-2.67a8.77 8.77 0 0 0-2.19-3.56 5.91 5.91 0 0 0-4.32-1.45q-4 0-5.49 2.7a12.75 12.75 0 0 0-1.51 6.23 13 13 0 0 0 1.48 6.27q1.5 2.74 5.49 2.74c2.77 0 4.91-1.43 6.42-4.31a1.43 1.43 0 0 1 1.34-.54h1.33a9.21 9.21 0 0 1-3 4.89 9.21 9.21 0 0 1-6.06 1.84c-3.45 0-5.9-1-7.37-3a13.1 13.1 0 0 1-2.19-7.88 13.35 13.35 0 0 1 2.2-7.84zm31.27-2.74v2.35h-2.12a5 5 0 0 0-3.88 1.64 5.29 5.29 0 0 0-1.53 3.68v13.56h-2.66V25.15a8.24 8.24 0 0 1 2.16-5.65 7.24 7.24 0 0 1 5.68-2.42zm5.64 17.08q1.48 2.51 5.33 2.5 4.23-.07 6.42-4.31c.16-.31.6-.49 1.33-.54H261a8.4 8.4 0 0 1-3.21 5.09 9.33 9.33 0 0 1-5.87 1.64q-5.17 0-7.37-3a13.14 13.14 0 0 1-2.19-7.84 13.15 13.15 0 0 1 2.19-7.79q2.19-3.11 7.37-3.1 5.4 0 7.56 3.45a14 14 0 0 1 2 8.07H244.9a11.74 11.74 0 0 0 1.65 5.83zm12.22-7.92A10.51 10.51 0 0 0 257 21q-1.56-2.23-5.09-2.23T246.74 21a10.78 10.78 0 0 0-1.74 5.24zm10.89 7.92c1 1.67 2.77 2.5 5.33 2.5q4.23-.07 6.42-4.31c.16-.31.61-.49 1.34-.54h1.33a8.49 8.49 0 0 1-3.21 5.09 9.34 9.34 0 0 1-5.87 1.64c-3.45 0-5.9-1-7.37-3a13.14 13.14 0 0 1-2.19-7.84 13.15 13.15 0 0 1 2.19-7.79c1.47-2.07 3.92-3.1 7.37-3.1s6.13 1.15 7.56 3.45a14 14 0 0 1 2 8.07H268a11.73 11.73 0 0 0 1.66 5.83zm12.22-7.92a10.33 10.33 0 0 0-1.8-5.29q-1.56-2.23-5.09-2.23T269.86 21a10.68 10.68 0 0 0-1.77 5.29zM289.09 11h1.73a.84.84 0 0 1 .94.94V28l9.79-10.89H305l-7.92 8.77 8.23 12.46h-3.52l-5-7.6c-.84-1.26-1.72-1.88-2.66-1.88a2.84 2.84 0 0 0-1.57.51 2.22 2.22 0 0 0-.78 2v7h-2.67zM132.91 55.08c-.07-1.35-.16-3-.15-4.18-.33 1.14-.73 2.34-1.22 3.67l-1.7 4.69h-1l-1.56-4.6c-.46-1.36-.85-2.61-1.12-3.76 0 1.21-.1 2.83-.19 4.28l-.25 4.14h-1.2l.68-9.66h1.59l1.65 4.67c.4 1.19.73 2.25 1 3.26a32.52 32.52 0 0 1 1-3.26l1.72-4.67h1.59l.6 9.66h-1.22zm13.39 1.2l-1 3H144l3.29-9.66h1.5l3.3 9.66h-1.33l-1-3zm3.17-1l-.95-2.78c-.21-.64-.36-1.21-.5-1.77-.14.57-.3 1.16-.49 1.75l-.95 2.8zm12.63-5.49a12.87 12.87 0 0 1 2.39-.21 4 4 0 0 1 2.8.79 2.4 2.4 0 0 1 .76 1.84 2.55 2.55 0 0 1-1.82 2.47 2.4 2.4 0 0 1 1.42 2 17 17 0 0 0 .74 2.65h-1.29a13 13 0 0 1-.64-2.31c-.29-1.33-.8-1.83-1.94-1.88h-1.17v4.19h-1.25zm1.25 4.4h1.27c1.34 0 2.19-.73 2.19-1.84s-.91-1.79-2.23-1.8a5 5 0 0 0-1.23.11zm15.05-4.53h1.25v4.66c.26-.38.52-.72.76-1l3-3.62H185l-3.5 4.1 3.77 5.56h-1.48l-3.18-4.75-.92 1.07v3.68h-1.29zm21.37 5.13H196v3.49h4.19v1h-5.43v-9.62H200v1h-4v3.06h3.76zm12.7-4.07h-2.93v-1.06h7.15v1.06h-2.95v8.6h-1.27zm15.13-1.06v9.66h-1.24v-9.66zm10.77 9.66v-9.66h1.37l3.09 4.89a26.88 26.88 0 0 1 1.74 3.14c-.11-1.29-.14-2.46-.14-4v-4h1.17v9.66h-1.26l-3.07-4.9a32.11 32.11 0 0 1-1.81-3.23c.07 1.22.1 2.39.1 4v4.13zm25.39-.43a9.07 9.07 0 0 1-3 .53 4.53 4.53 0 0 1-5-4.87 4.85 4.85 0 0 1 5.24-5 6 6 0 0 1 2.41.44l-.3 1a5 5 0 0 0-2.11-.39 3.62 3.62 0 0 0-3.88 3.89 3.54 3.54 0 0 0 3.72 3.9 4 4 0 0 0 1.67-.26v-2.88h-2v-1h3.19zm-242.43-.6c-1.07-3.64-.28-6.53-.1-8.89.19-2.54.72-5.51 1.55-10.1L29.91 0H0v36c0 18 13.62 32.05 32.45 34.46-1.53-.87-2.05-.95-3.61-1.87-4.38-2.59-6.33-6.27-7.51-10.3z" fill="#3a84b6"/><path d="M63.43 36.12c-.81 21.39-10.6 26.62-19.3 26.62S31.21 58 31.21 48.73c0-17.95 9.33-26.25 19.78-26.25 5.7 0 12.87 2.26 12.44 13.64z" fill="#3a84b6"/><path d="M37.58.13c.06 0 1 .63 1.08 3.38.08 2.26-3.06 18.33-3.06 18.33l-.25.64c5.11-6.72 11.93-8.59 18.9-8.59a20.4 20.4 0 0 1 10.81 2.69A36.47 36.47 0 0 0 37.58.13z" fill="#73c48f"/></svg>